<svg width="1872" height="1054" viewBox="0 0 1872 1054" fill="none" xmlns="http://www.w3.org/2000/svg">
<path d="M1871.95 0.529785H0V1053.53H1871.95V0.529785Z" fill="#FFF6F4"/>
<path d="M851.303 501.547C822.824 496.638 820.439 489.231 820.439 482.066C820.439 471.966 828.826 465.939 842.877 465.939C859.652 465.939 867.748 473.356 871.782 492.38L872.354 495.063L891.572 491.253L890.991 488.492C885.211 461.166 869.668 447.887 843.458 447.887C817.249 447.887 800.716 461.127 800.716 482.445C800.716 502.5 814.893 514.272 845.33 519.492C869.998 523.556 874.817 529.709 874.817 538.964C874.817 545.496 871.423 556.452 848.685 556.452C828.71 556.452 816.444 545.934 813.205 526.044L812.74 523.196L793.803 526.997L794.132 529.563C795.849 543.154 801.075 553.993 809.647 561.76C819.014 570.237 831.939 574.592 848.103 574.679C890.002 574.679 894.53 549.288 894.53 538.371C894.53 518.161 881.197 506.797 851.293 501.518L851.303 501.547Z" fill="#2D1523"/>
<path d="M958.313 474.211C945.184 474.211 934.896 479.655 928.69 489.541V447.507H909.753V572.56H928.69V515.788C928.69 500.711 937.786 492.059 953.659 492.059C971.248 492.059 974.933 504.959 974.933 515.788V572.56H993.87V512.862C993.87 487.937 981.245 474.211 958.303 474.211H958.313Z" fill="#2D1523"/>
<path d="M1053.17 474.405C1032.28 474.405 1018.64 484.35 1013.75 503.16L1012.98 506.096L1031.34 509.246L1032.04 506.874C1035.17 496.219 1041.37 491.68 1052.79 491.68C1066.53 491.68 1072.13 498.047 1072.13 513.649V516.906H1043.67C1018.45 516.906 1009.47 532.139 1009.47 546.39C1009.47 564.257 1021.23 574.513 1041.73 574.513C1055.16 574.513 1065.73 569.147 1072.13 559.416V572.569H1090.87V513.261C1090.87 487.49 1078.19 474.415 1053.18 474.415L1053.17 474.405ZM1044.64 557.443C1029.82 557.443 1028.22 548.898 1028.22 545.224C1028.22 537.369 1033.87 533.383 1045.03 533.383H1072.13V536.445C1072.13 549.005 1061.09 557.443 1044.64 557.443Z" fill="#2D1523"/>
<path d="M1161.43 474.211C1146.74 474.211 1135.64 480.296 1129.09 491.651V476.359H1110.15V599.652H1129.09V557.433C1135.61 568.924 1146.78 574.844 1162.01 574.708C1172.91 574.776 1182.36 571.16 1189.37 564.19C1198.29 555.324 1203 541.549 1203 524.362C1203 492.963 1187.46 474.211 1161.43 474.211ZM1157.35 557.054C1139.92 557.054 1129.09 544.747 1129.09 524.945V523.779C1129.09 503.627 1139.39 492.059 1157.35 492.059C1175.32 492.059 1184.07 502.927 1184.07 524.362C1184.07 539.274 1179.43 557.054 1157.35 557.054Z" fill="#2D1523"/>
<path d="M1263.04 474.211C1233.78 474.211 1214.87 494.052 1214.87 524.751C1214.87 555.45 1233.48 574.698 1263.43 574.698C1281.39 574.698 1294.78 567.611 1302.13 554.196L1303.48 551.737L1287.43 543.095L1286.1 545.496C1281.74 553.38 1274.53 557.044 1263.42 557.044C1246.68 557.044 1236.43 547.975 1234.28 531.429H1306.48L1306.74 528.941C1307.14 525.091 1307.14 521.339 1307.14 519.103C1307.14 491.417 1290.24 474.221 1263.04 474.221V474.211ZM1234.64 514.748C1237.39 499.826 1247.24 491.66 1262.66 491.66C1278.07 491.66 1287.01 499.427 1288.74 514.748H1234.63H1234.64Z" fill="#2D1523"/>
<path d="M731.629 503.627C729.67 503.627 727.459 503.627 725.045 503.627L725.064 503.608H701.104C680.247 503.608 654.862 503.608 633.665 503.608C627.644 503.608 621.952 503.608 616.803 503.608C614.844 503.608 612.905 502.985 611.431 501.693C609.734 500.205 608.794 498.135 608.765 495.899L608.968 489.133C609.017 487.13 609.909 485.244 611.412 483.942C633.045 465.277 642.596 458.142 651.012 451.852C652.612 450.657 654.183 449.48 655.793 448.265C659.264 446.263 661.116 446.292 664.675 446.341C665.266 446.341 665.877 446.36 666.498 446.36H736.981C740.249 446.36 742.896 449.014 742.896 452.29V461.923C742.896 463.362 742.237 464.713 741.102 465.598L740.782 465.851L711.964 493.274C711.295 493.906 711.741 495.034 712.662 495.034H732.288C733.423 495.034 734.518 494.596 735.343 493.809L751.574 478.362C756.539 474.318 759.37 468.359 759.37 461.923V452.29C759.37 439.886 749.344 429.834 736.972 429.834H666.488C665.945 429.834 665.421 429.834 664.907 429.815C660.36 429.747 654.707 429.669 646.988 434.277L646.6 434.51L646.232 434.782C644.525 436.075 642.867 437.319 641.161 438.593C632.521 445.048 622.718 452.368 600.649 471.411C595.616 475.757 592.63 482.066 592.475 488.686L592.271 495.549V495.792C592.271 502.587 595.015 508.954 599.989 513.611C604.586 517.907 610.733 520.133 617.026 520.133C635.459 520.133 660.738 520.133 683.719 520.133L683.689 520.163H707.63L707.659 520.133C717.113 520.133 725.307 520.133 731.309 520.133C733.849 520.133 736.351 521.008 738.193 522.768C740.171 524.663 741.238 527.24 741.16 529.971L740.598 551.853C740.579 552.68 740.123 553.127 739.774 553.389L709.114 577.925C705.332 580.949 700.639 582.601 695.8 582.601H612.973C611.169 582.601 609.715 581.133 609.715 579.335V558.444C609.715 556.792 611.053 555.421 612.701 555.411C615.95 555.382 619.799 555.372 623.94 555.372C625.617 555.372 627.343 555.372 629.108 555.372C639.832 555.372 651.982 555.392 661.291 555.129C667.768 554.954 673.886 552.369 678.531 547.848L696.78 530.486C697.449 529.855 697.003 528.727 696.082 528.727H676.456C675.321 528.727 674.226 529.164 673.401 529.952L667.157 535.891L667.079 535.969C665.382 537.602 663.152 538.545 660.796 538.613C651.73 538.856 639.716 538.856 629.127 538.847C622.999 538.847 617.21 538.847 612.556 538.885C601.9 538.992 593.231 547.761 593.231 558.444V579.335C593.231 590.271 602.074 599.127 612.973 599.127H695.8C704.382 599.127 712.701 596.201 719.402 590.835L749.907 566.416C754.328 562.965 756.946 557.803 757.072 552.252L757.635 530.38C757.868 521.281 753.504 512.823 745.553 507.603C741.432 504.891 736.545 503.588 731.609 503.588L731.629 503.627Z" fill="#2D1523"/>
</svg>
